<?xml version="1.0" encoding="UTF-8"?>
<svg id="Layer_1" data-name="Layer 1" xmlns="http://www.w3.org/2000/svg" width="2000" height="915.1" viewBox="0 0 2000 915.1">
  <defs>
    <style>
      .cls-1 {
        fill: #8fcbd2;
      }

      .cls-2 {
        fill: #91ccd4;
      }

      .cls-3 {
        fill: #fdc873;
      }

      .cls-4 {
        fill: #90cbd2;
      }

      .cls-5 {
        fill: #fdc974;
      }

      .cls-6 {
        fill: #90ccd5;
      }

      .cls-7 {
        fill: #fd9490;
      }

      .cls-8 {
        fill: #8fcbd1;
      }

      .cls-9 {
        fill: #fdcbc5;
      }

      .cls-10 {
        fill: #fd9591;
      }
    </style>
  </defs>
  <path class="cls-8" d="M1396.45,92.84c103.3-17.53,111.63,134.08,21.09,141.36-53.41,4.29-85.52-51.12-68.11-98.75,6.5-17.79,27.82-39.35,47.02-42.61Z"/>
  <g>
    <g>
      <path class="cls-10" d="M638.71,529.86c-4.34,6.38,2.8,26.01,7.5,32.37,8.77,11.87,24.89,16.47,39.2,15.45,31.68-2.28,65.88-43.68,91.71-6.43,24.08,34.73-2.73,79.95-34.47,98.62-63.43,37.32-150.87,13.29-185.49-51.37-51.24-95.7-22.23-319.71,112.98-329.39,143.87-10.29,160.39,226.65,13.1,238.27-7.6.6-41.54-1.88-44.52,2.49ZM668.38,379.17c-18.99,4.39-32.32,42.58-32.27,59.77.07,23.53,40.64,8.1,51.59-3.3,19.26-20.05,14.91-64.37-19.32-56.47Z"/>
      <path class="cls-7" d="M919.98,274.41c41.74-4.26,96.3,4.93,114.56,48.15,9.75,23.09,7.92,56.45-13.66,72.42-30.36,22.46-47.76-15.35-81.89-11.96-18.27,1.81-21.17,21.51-9.63,33.79,12.93,13.75,45.87,26.93,63.05,39.7,88.14,65.46,67.92,199.66-40.9,225.46-53.68,12.72-131.3-3.44-151.39-61.58-10.04-29.06,3.92-69.47,36.68-75.01,26.54-4.49,41.17,27.76,70,31.72,22.27,3.06,39.13-11.57,25.58-32.13-10.21-15.49-58.92-35.78-77.55-51.43-88.52-74.35-50.38-207.32,65.16-219.12Z"/>
      <g>
        <path class="cls-2" d="M175.59,389.04c14.7,17.51,72.26-13.17,97.17-2.09,19.41,8.64,20.39,46.69,17.81,64.77-3.43,24.06-14.88,41.36-38.6,48.83-31.61,9.95-63.81-3-61.7,43.23,1.9,41.77,23.6,112.48-.36,148.3-28.64,42.82-102.6,43.59-129.06-1.4-10.54-17.93-13.76-39.46-16.78-59.73-12.97-87.13-22.72-178.92-32.83-266.68C7.6,332.81,1.14,294.76.07,263.95c-2.45-70.35,62.97-96.64,121.59-105.77,42.87-6.68,133.33-16.85,171.93-1.93,33.26,12.85,44.2,44.9,40.36,78.68-5.13,45.13-33.52,58.21-74.83,62.9-27.87,3.16-71.84-3.32-85.79,27.89-6.27,14.01-7.74,51.41,2.26,63.32Z"/>
        <path class="cls-6" d="M426.37,359.04c3.23,3.55,3.94-1.46,4.96-2.77,14.86-18.91,21.55-34.17,47-42.54,87.39-28.75,84.68,90.55,30.12,111.01-29.93,11.23-49.55-3.15-63.03,37.54-19.12,57.75,6.65,132.98-11.45,187.49-19.48,58.65-106.69,51.24-114.51-16.57-7.05-61.14,4.89-134.21-.32-196.63,7.71-41.32-13.4-117.52,47.27-125.44,25.73-3.36,48.76.72,57.16,27.76,1.68,5.41,2.11,19.4,2.8,20.16Z"/>
        <path class="cls-4" d="M316.47,1.02c64.89-11.04,82.76,70.42,32.67,93.89-19.72,9.24-46.16,4.26-60.47-12.46-23.7-27.69-8.83-75.2,27.8-81.43Z"/>
        <path class="cls-1" d="M475.89,181.21c-17.84,17.46-50.13,15.96-64.47-5.07-23.2-34.01,9.67-76.08,48.22-63.52,28.65,9.33,38.16,47.16,16.25,68.59Z"/>
      </g>
    </g>
    <g>
      <path class="cls-5" d="M1704.54,307.32c36.68,39.08,41.28,118.46,12.59,163.05-22.8,35.42-60.81,44.43-100.38,46.13-3.44.15-19.99-3.88-22.77.14-.75,1.08-.54,17.47-.08,20.47,3.37,22.26,26.41,31.47,46.66,29.42,30.94-3.13,60.6-43.06,87.55-4.03,19.31,27.97,2.91,70.09-21.72,89.51-50.69,39.97-134.77,30.14-177.12-17.46-71.9-80.81-59.3-320.9,62.77-354.86,37.72-10.49,85.14-1.52,112.51,27.64ZM1594.32,437.19c7.49,7.08,29.22,1.11,37.37-4.17,32.64-21.17,14.49-83.15-22.43-61.79-14.45,8.36-27.1,54.46-14.93,65.96Z"/>
      <path class="cls-8" d="M1875.35,267.86c33.55-2.98,76.22,6.51,97.79,34.29,20.12,25.9,26.54,84.28-14.14,93.1-22.84,4.95-37.97-20.87-60.21-20.94-29.55-.09-31.67,25.16-12.09,42.7,36.83,32.99,75.94,35.9,100.28,89.92,57.9,128.49-89.85,231.07-197.19,162.21-38.51-24.71-57.97-87.74-15.29-117.34,31.77-22.03,45.62,11.16,72.92,20.36,19.73,6.65,44.1,2.1,38.82-23.52-4-19.42-52.23-40.23-69.3-53.13-99.73-75.33-68.05-216.42,58.4-227.65Z"/>
      <path class="cls-3" d="M1407.43,287.47c33.26-4.8,57.59,13.33,61.74,46.44l-.25,294.88c-3.83,60.57-92.56,65.9-100.3,4.62l.22-305.83c2.38-20.41,18.11-37.15,38.59-40.1Z"/>
      <g>
        <path class="cls-7" d="M1184.97,192.9c2.27,43.42-1.82,88.7,0,132.3.28,6.61,1.01,1.54,2.19,1.06,7.27-2.99,10.87-11.11,17.62-16.27,31.7-24.19,78.73-22.84,104.77,8.65,32.63,39.47,33.69,137.24,35.11,187.88.94,33.46,4.47,108.49-5.06,137.24-17.02,51.31-97.54,45.81-104.12-10.57-6.65-56.93,7.58-128.82-1.21-184.61-3.15-20.01-14.31-35.74-36.29-25.14-12.07,5.82-15.05,18.69-17.17,30.93-9.21,53.34,2.34,118.01-2.41,172.48-1.06,12.18-7.29,29.89-16.39,38.26-21.12,19.4-62.38,17.83-80.69-4.55-15.14-18.5-10.86-31.92-12.21-53.37-8.63-136.65,1.98-276.08-2.27-413.28,3.55-74.98,113.97-80.95,118.14-1Z"/>
        <path class="cls-9" d="M1187.15,326.25c-1.18.49-1.91,5.55-2.19-1.06-1.82-43.6,2.27-88.88,0-132.3l2.19,133.36Z"/>
      </g>
    </g>
  </g>
  <g>
    <path class="cls-8" d="M376.82,840.74c38.39-39.92,143.09-54.97,197.44-63.81,278.77-45.35,597.38-53.13,878.52-30.93,47.78,3.77,148.98,7.74,188.87,29.75,33.37,18.42,22.92,54.11-13.98,57.69-35.08,3.4-72.19-1.92-107.02-2.27-316.03-3.2-613.77,3.85-926.76,52.84-53.4,8.36-119.01,26.76-170.71,30.42-18.75,1.33-45.8,2.46-57.26-15.07-11.86-18.14-2.9-44.27,10.9-58.62Z"/>
    <path class="cls-4" d="M264.16,733.36c60.15-3.65,77.42,82.65,19.48,102.74-75.67,26.24-98.6-97.95-19.48-102.74Z"/>
    <path class="cls-8" d="M1796.67,750.85c61.99-3.81,68.78,92.39,5.91,97.94-63.96,5.65-73.96-93.76-5.91-97.94Z"/>
  </g>
</svg>