<?xml version="1.0" encoding="UTF-8"?>
<svg id="Layer_1" data-name="Layer 1" xmlns="http://www.w3.org/2000/svg" viewBox="0 0 2000 915.1">
  <defs>
    <style>
      .cls-1 {
        fill: #fff;
      }
    </style>
  </defs>
  <g>
    <path class="cls-1" d="M1396.45,92.84c103.3-17.53,111.63,134.08,21.09,141.36-53.41,4.29-85.52-51.12-68.11-98.75,6.5-17.79,27.82-39.35,47.02-42.61Z"/>
    <g>
      <g>
        <path class="cls-1" d="M638.71,529.86c-4.34,6.38,2.8,26.01,7.5,32.37,8.77,11.87,24.89,16.47,39.2,15.45,31.68-2.28,65.88-43.68,91.71-6.43,24.08,34.73-2.73,79.95-34.47,98.62-63.43,37.32-150.87,13.29-185.49-51.37-51.24-95.7-22.23-319.71,112.98-329.39,143.87-10.29,160.39,226.65,13.1,238.27-7.6.6-41.54-1.88-44.52,2.49ZM668.38,379.17c-18.99,4.39-32.32,42.58-32.27,59.77.07,23.53,40.64,8.1,51.59-3.3,19.26-20.05,14.91-64.37-19.32-56.47Z"/>
        <path class="cls-1" d="M919.98,274.41c41.74-4.26,96.3,4.93,114.56,48.15,9.75,23.09,7.92,56.45-13.66,72.42-30.36,22.46-47.76-15.35-81.89-11.96-18.27,1.81-21.17,21.51-9.63,33.79,12.93,13.75,45.87,26.93,63.05,39.7,88.14,65.46,67.92,199.66-40.9,225.46-53.68,12.72-131.3-3.44-151.39-61.58-10.04-29.06,3.92-69.47,36.68-75.01,26.54-4.49,41.17,27.76,70,31.72,22.27,3.06,39.13-11.57,25.58-32.13-10.21-15.49-58.92-35.78-77.55-51.43-88.52-74.35-50.38-207.32,65.16-219.12Z"/>
        <g>
          <path class="cls-1" d="M175.59,389.04c14.7,17.51,72.26-13.17,97.17-2.09,19.41,8.64,20.39,46.69,17.81,64.77-3.43,24.06-14.88,41.36-38.6,48.83-31.61,9.95-63.81-3-61.7,43.23,1.9,41.77,23.6,112.48-.36,148.3-28.64,42.82-102.6,43.59-129.06-1.4-10.54-17.93-13.76-39.46-16.78-59.73-12.97-87.13-22.72-178.92-32.83-266.68C7.6,332.81,1.14,294.76.07,263.95c-2.45-70.35,62.97-96.64,121.59-105.77,42.87-6.68,133.33-16.85,171.93-1.93,33.26,12.85,44.2,44.9,40.36,78.68-5.13,45.13-33.52,58.21-74.83,62.9-27.87,3.16-71.84-3.32-85.79,27.89-6.27,14.01-7.74,51.41,2.26,63.32Z"/>
          <path class="cls-1" d="M426.37,359.04c3.23,3.55,3.94-1.46,4.96-2.77,14.86-18.91,21.55-34.17,47-42.54,87.39-28.75,84.68,90.55,30.12,111.01-29.93,11.23-49.55-3.15-63.03,37.54-19.12,57.75,6.65,132.98-11.45,187.49-19.48,58.65-106.69,51.24-114.51-16.57-7.05-61.14,4.89-134.21-.32-196.63,7.71-41.32-13.4-117.52,47.27-125.44,25.73-3.36,48.76.72,57.16,27.76,1.68,5.41,2.11,19.4,2.8,20.16Z"/>
          <path class="cls-1" d="M316.47,1.02c64.89-11.04,82.76,70.42,32.67,93.89-19.72,9.24-46.16,4.26-60.47-12.46-23.7-27.69-8.83-75.2,27.8-81.43Z"/>
          <path class="cls-1" d="M475.89,181.21c-17.84,17.46-50.13,15.96-64.47-5.07-23.2-34.01,9.67-76.08,48.22-63.52,28.65,9.33,38.16,47.16,16.25,68.59Z"/>
        </g>
      </g>
      <g>
        <path class="cls-1" d="M1704.54,307.32c36.68,39.08,41.28,118.46,12.59,163.05-22.8,35.42-60.81,44.43-100.38,46.13-3.44.15-19.99-3.88-22.77.14-.75,1.08-.54,17.47-.08,20.47,3.37,22.26,26.41,31.47,46.66,29.42,30.94-3.13,60.6-43.06,87.55-4.03,19.31,27.97,2.91,70.09-21.72,89.51-50.69,39.97-134.77,30.14-177.12-17.46-71.9-80.81-59.3-320.9,62.77-354.86,37.72-10.49,85.14-1.52,112.51,27.64ZM1594.32,437.19c7.49,7.08,29.22,1.11,37.37-4.17,32.64-21.17,14.49-83.15-22.43-61.79-14.45,8.36-27.1,54.46-14.93,65.96Z"/>
        <path class="cls-1" d="M1875.35,267.86c33.55-2.98,76.22,6.51,97.79,34.29,20.12,25.9,26.54,84.28-14.14,93.1-22.84,4.95-37.97-20.87-60.21-20.94-29.55-.09-31.67,25.16-12.09,42.7,36.83,32.99,75.94,35.9,100.28,89.92,57.9,128.49-89.85,231.07-197.19,162.21-38.51-24.71-57.97-87.74-15.29-117.34,31.77-22.03,45.62,11.16,72.92,20.36,19.73,6.65,44.1,2.1,38.82-23.52-4-19.42-52.23-40.23-69.3-53.13-99.73-75.33-68.05-216.42,58.4-227.65Z"/>
        <path class="cls-1" d="M1407.43,287.47c33.26-4.8,57.59,13.33,61.74,46.44l-.25,294.88c-3.83,60.57-92.56,65.9-100.3,4.62l.22-305.83c2.38-20.41,18.11-37.15,38.59-40.1Z"/>
        <g>
          <path class="cls-1" d="M1184.97,192.9c2.27,43.42-1.82,88.7,0,132.3.28,6.61,1.01,1.54,2.19,1.06,7.27-2.99,10.87-11.11,17.62-16.27,31.7-24.19,78.73-22.84,104.77,8.65,32.63,39.47,33.69,137.24,35.11,187.88.94,33.46,4.47,108.49-5.06,137.24-17.02,51.31-97.54,45.81-104.12-10.57-6.65-56.93,7.58-128.82-1.21-184.61-3.15-20.01-14.31-35.74-36.29-25.14-12.07,5.82-15.05,18.69-17.17,30.93-9.21,53.34,2.34,118.01-2.41,172.48-1.06,12.18-7.29,29.89-16.39,38.26-21.12,19.4-62.38,17.83-80.69-4.55-15.14-18.5-10.86-31.92-12.21-53.37-8.63-136.65,1.98-276.08-2.27-413.28,3.55-74.98,113.97-80.95,118.14-1Z"/>
          <path class="cls-1" d="M1187.15,326.25c-1.18.49-1.91,5.55-2.19-1.06-1.82-43.6,2.27-88.88,0-132.3l2.19,133.36Z"/>
        </g>
      </g>
    </g>
    <g>
      <path class="cls-1" d="M376.82,840.74c38.39-39.92,143.09-54.97,197.44-63.81,278.77-45.35,597.38-53.13,878.52-30.93,47.78,3.77,148.98,7.74,188.87,29.75,33.37,18.42,22.92,54.11-13.98,57.69-35.08,3.4-72.19-1.92-107.02-2.27-316.03-3.2-613.77,3.85-926.76,52.84-53.4,8.36-119.01,26.76-170.71,30.42-18.75,1.33-45.8,2.46-57.26-15.07-11.86-18.14-2.9-44.27,10.9-58.62Z"/>
      <path class="cls-1" d="M264.16,733.36c60.15-3.65,77.42,82.65,19.48,102.74-75.67,26.24-98.6-97.95-19.48-102.74Z"/>
      <path class="cls-1" d="M1796.67,750.85c61.99-3.81,68.78,92.39,5.91,97.94-63.96,5.65-73.96-93.76-5.91-97.94Z"/>
    </g>
  </g>
  <g>
    <path class="cls-1" d="M1417.54,234.2c90.54-7.28,82.21-158.88-21.09-141.36-19.2,3.26-40.52,24.82-47.02,42.61-17.41,47.63,14.7,103.04,68.11,98.75Z"/>
    <path class="cls-1" d="M557.16,618.49c34.62,64.66,122.06,88.69,185.49,51.37,31.74-18.67,58.55-63.89,34.47-98.62-25.82-37.24-60.03,4.16-91.71,6.43-14.31,1.03-30.43-3.58-39.2-15.45-4.7-6.36-11.84-25.99-7.5-32.37,2.98-4.37,36.92-1.89,44.52-2.49,147.29-11.62,130.78-248.56-13.1-238.27-135.21,9.67-164.21,233.69-112.98,329.39ZM668.38,379.17c34.23-7.91,38.57,36.41,19.32,56.47-10.95,11.4-51.52,26.83-51.59,3.3-.05-17.19,13.28-55.38,32.27-59.77Z"/>
    <path class="cls-1" d="M906.79,577.09c-28.82-3.96-43.46-36.2-70-31.72-32.76,5.54-46.72,45.95-36.68,75.01,20.09,58.15,97.71,74.31,151.39,61.58,108.82-25.79,129.04-160,40.9-225.46-17.18-12.76-50.12-25.94-63.05-39.7-11.54-12.27-8.64-31.97,9.63-33.79,34.13-3.39,51.52,34.42,81.89,11.96,21.59-15.97,23.41-49.34,13.66-72.42-18.25-43.22-72.82-52.41-114.56-48.15-115.54,11.8-153.67,144.76-65.16,219.12,18.62,15.64,67.34,35.94,77.55,51.43,13.55,20.56-3.31,35.19-25.58,32.13Z"/>
    <path class="cls-1" d="M251.96,500.55c23.72-7.47,35.17-24.77,38.6-48.83,2.58-18.08,1.6-56.13-17.81-64.77-24.91-11.08-82.47,19.61-97.17,2.09-10-11.92-8.53-49.31-2.26-63.32,13.95-31.21,57.93-24.72,85.79-27.89,41.31-4.69,69.7-17.77,74.83-62.9,3.84-33.78-7.11-65.83-40.36-78.68-38.6-14.92-129.06-4.74-171.93,1.93C63.04,167.31-2.38,193.6.07,263.95c1.07,30.81,7.54,68.86,11.16,100.32,10.11,87.76,19.87,179.55,32.83,266.68,3.02,20.28,6.24,41.81,16.78,59.73,26.46,44.98,100.42,44.22,129.06,1.4,23.96-35.82,2.27-106.52.36-148.3-2.11-46.23,30.1-33.28,61.7-43.23Z"/>
    <path class="cls-1" d="M433.97,649.76c18.1-54.51-7.67-129.74,11.45-187.49,13.47-40.69,33.09-26.31,63.03-37.54,54.56-20.46,57.27-139.76-30.12-111.01-25.44,8.37-32.13,23.64-47,42.54-1.03,1.3-1.74,6.31-4.96,2.77-.68-.75-1.11-14.74-2.8-20.16-8.4-27.04-31.43-31.12-57.16-27.76-60.67,7.92-39.56,84.11-47.27,125.44,5.21,62.42-6.74,135.5.32,196.63,7.82,67.82,95.03,75.22,114.51,16.57Z"/>
    <path class="cls-1" d="M349.15,94.91c50.09-23.46,32.22-104.92-32.67-93.89-36.63,6.23-51.49,53.74-27.8,81.43,14.31,16.71,40.75,21.7,60.47,12.46Z"/>
    <path class="cls-1" d="M475.89,181.21c21.91-21.43,12.4-59.26-16.25-68.59-38.55-12.56-71.42,29.52-48.22,63.52,14.35,21.03,46.63,22.53,64.47,5.07Z"/>
    <path class="cls-1" d="M1640.56,566.53c-20.24,2.05-43.28-7.16-46.66-29.42-.46-3.01-.67-19.39.08-20.47,2.78-4.02,19.33,0,22.77-.14,39.57-1.7,77.58-10.7,100.38-46.13,28.7-44.59,24.1-123.97-12.59-163.05-27.37-29.16-74.79-38.13-112.51-27.64-122.07,33.96-134.67,274.06-62.77,354.86,42.36,47.6,126.44,57.43,177.12,17.46,24.63-19.42,41.03-61.54,21.72-89.51-26.94-39.03-56.61.91-87.55,4.03ZM1609.26,371.24c36.93-21.37,55.07,40.61,22.43,61.79-8.15,5.29-29.87,11.26-37.37,4.17-12.16-11.5.48-57.59,14.93-65.96Z"/>
    <path class="cls-1" d="M1986.98,506.92c-24.34-54.01-63.45-56.93-100.28-89.92-19.58-17.54-17.46-42.79,12.09-42.7,22.24.07,37.36,25.89,60.21,20.94,40.68-8.82,34.27-67.19,14.14-93.1-21.58-27.78-64.25-37.27-97.79-34.29-126.45,11.23-158.13,152.32-58.4,227.65,17.07,12.9,65.3,33.71,69.3,53.13,5.28,25.62-19.1,30.17-38.82,23.52-27.3-9.2-41.15-42.4-72.92-20.36-42.68,29.6-23.22,92.64,15.29,117.34,107.34,68.86,255.09-33.72,197.19-162.21Z"/>
    <path class="cls-1" d="M1407.43,287.47c-20.48,2.95-36.22,19.69-38.59,40.1l-.22,305.83c7.74,61.28,96.48,55.96,100.3-4.62l.25-294.88c-4.15-33.12-28.48-51.24-61.74-46.44Z"/>
    <path class="cls-1" d="M1069.1,607.18c1.35,21.45-2.92,34.87,12.21,53.37,18.31,22.38,59.57,23.95,80.69,4.55,9.11-8.37,15.33-26.08,16.39-38.26,4.75-54.47-6.8-119.14,2.41-172.48,2.11-12.24,5.1-25.11,17.17-30.93,21.98-10.59,33.13,5.13,36.29,25.14,8.79,55.79-5.44,127.68,1.21,184.61,6.58,56.37,87.1,61.88,104.12,10.57,9.53-28.74,6-103.78,5.06-137.24-1.43-50.63-2.48-148.41-35.11-187.88-26.04-31.49-73.07-32.84-104.77-8.65-6.75,5.15-10.35,13.28-17.62,16.27l-1.54-93.76c.13-13.3.03-26.53-.65-39.59-4.18-79.95-114.59-73.97-118.14,1,4.25,137.2-6.35,276.63,2.27,413.28Z"/>
    <path class="cls-1" d="M1641.64,775.75c-39.89-22.01-141.09-25.98-188.87-29.75-281.13-22.2-599.75-14.42-878.52,30.93-54.35,8.84-159.05,23.88-197.44,63.81-13.8,14.35-22.75,40.48-10.9,58.62,11.46,17.53,38.5,16.4,57.26,15.07,51.69-3.67,117.3-22.07,170.71-30.42,312.99-48.99,610.73-56.04,926.76-52.84,34.83.35,71.93,5.68,107.02,2.27,36.91-3.58,47.35-39.27,13.98-57.69Z"/>
    <path class="cls-1" d="M264.16,733.36c-79.12,4.8-56.19,128.98,19.48,102.74,57.94-20.09,40.67-106.39-19.48-102.74Z"/>
    <path class="cls-1" d="M1796.67,750.85c-68.06,4.18-58.05,103.58,5.91,97.94,62.88-5.55,56.08-101.74-5.91-97.94Z"/>
  </g>
</svg>